<svg xmlns="http://www.w3.org/2000/svg" width="1200" height="630" viewBox="0 0 1200 630" role="img" aria-labelledby="title desc">
  <title id="title">ReyDesk — Support Simplified.</title>
  <desc id="desc">Remote support, endpoint management and IT service management in one workspace.</desc>
  <rect width="1200" height="630" fill="#0e1114"/>
  <circle cx="1020" cy="80" r="260" fill="#303a45" opacity=".65"/>
  <circle cx="1120" cy="560" r="220" fill="#1a2027" opacity=".7"/>
  <rect x="84" y="92" width="96" height="96" rx="24" fill="#e8a33d"/>
  <path d="M111 162v-44h16c10 0 17 4 17 13 0 6-4 10-10 12l11 19h-14l-10-18h-2v18h-8zm11-25h4c4 0 6-2 6-5s-2-5-6-5h-4v10z" fill="#1b1408"/>
  <text x="208" y="158" fill="#e6e9ec" font-family="Arial,Helvetica,sans-serif" font-size="52" font-weight="700">ReyDesk</text>
  <text x="88" y="302" fill="#e6e9ec" font-family="Arial,Helvetica,sans-serif" font-size="68" font-weight="700">Support Simplified.</text>
  <text x="92" y="366" fill="#9aa4af" font-family="Arial,Helvetica,sans-serif" font-size="28">Remote support, endpoint management and IT service management</text>
  <text x="92" y="407" fill="#9aa4af" font-family="Arial,Helvetica,sans-serif" font-size="28">in one secure, consent-first workspace.</text>
  <rect x="92" y="500" width="252" height="58" rx="29" fill="#e8a33d"/>
  <text x="137" y="538" fill="#1b1408" font-family="Arial,Helvetica,sans-serif" font-size="22" font-weight="700">reydesk.com</text>
</svg>
