<svg xmlns="http://www.w3.org/2000/svg" viewBox="0 0 64 64" width="64" height="64" role="img" aria-label="ReyDesk">
  <title>ReyDesk</title>
  <!-- Shield with crown — "Rey" means king -->
  <!-- Shield body -->
  <path d="M32 4 L58 16 L58 36 C58 50 32 62 32 62 C32 62 6 50 6 36 L6 16 Z" fill="#e8a33d" stroke="none"/>
  <!-- Crown accent at top -->
  <path d="M18 16 L24 8 L32 16 L40 8 L46 16 L32 16 Z" fill="#1a2027" opacity="0.12"/>
  <!-- Stylized R -->
  <path d="M22 48 L22 24 L30 24 C36 24 40 27 40 32 C40 36 37 39 33 39 L30 39 L40 48" fill="none" stroke="#1a2027" stroke-width="4.5" stroke-linecap="round" stroke-linejoin="round"/>
  <path d="M35 39 L42 48" fill="none" stroke="#1a2027" stroke-width="4.5" stroke-linecap="round"/>
</svg>
